<svg xmlns="http://www.w3.org/2000/svg" xmlns:xlink="http://www.w3.org/1999/xlink" contentStyleType="text/css" data-diagram-type="DESCRIPTION" height="171px" preserveAspectRatio="none" style="width:1025px;height:171px;background:#FFFFFF;" version="1.1" viewBox="0 0 1025 171" width="1025px" zoomAndPan="magnify"><defs/><g><!--cluster Model--><g class="cluster" data-entity="Model" data-source-line="48" data-uid="ent0002" id="cluster_Model"><rect fill="#FDFDFD" height="158" rx="7.5" ry="7.5" style="stroke:#999999;stroke-width:2;stroke-dasharray:5,5;" width="563" x="7" y="7"/><text fill="#696969" font-family="sans-serif" font-size="14" font-weight="bold" lengthAdjust="spacing" textLength="40.4414" x="268.2793" y="24.1074">Model</text></g><!--cluster ViewModel--><g class="cluster" data-entity="ViewModel" data-source-line="61" data-uid="ent0006" id="cluster_ViewModel"><rect fill="none" height="129" rx="7.5" ry="7.5" style="stroke:none;stroke-width:2;" width="144" x="624" y="21.5"/></g><!--cluster View--><g class="cluster" data-entity="View" data-source-line="65" data-uid="ent0008" id="cluster_View"><rect fill="none" height="129" rx="7.5" ry="7.5" style="stroke:none;stroke-width:2;" width="146" x="873" y="21.5"/></g><!--entity DB--><g class="entity" data-entity="DB" data-source-line="49" data-uid="ent0003" id="entity_DB"><path d="M23,54 C23,44 71.9033,44 71.9033,44 C71.9033,44 120.8066,44 120.8066,54 L120.8066,138.8633 C120.8066,148.8633 71.9033,148.8633 71.9033,148.8633 C71.9033,148.8633 23,148.8633 23,138.8633 L23,54" fill="#A9A9A9" style="stroke:#FFFFFF;stroke-width:0.5;"/><path d="M23,54 C23,64 71.9033,64 71.9033,64 C71.9033,64 120.8066,64 120.8066,54" fill="none" style="stroke:#FFFFFF;stroke-width:0.5;"/><path d="M23,63 C23,73 71.9033,73 71.9033,73 C71.9033,73 120.8066,73 120.8066,63" fill="none" style="stroke:#FFFFFF;stroke-width:1;"/><path d="M23,71 C23,81 71.9033,81 71.9033,81 C71.9033,81 120.8066,81 120.8066,71" fill="none" style="stroke:#FFFFFF;stroke-width:1;"/><text fill="#FFFFFF" font-family="sans-serif" font-size="14" lengthAdjust="spacing" textLength="3.8896" x="33" y="95.1074">&#160;</text><rect fill="none" height="18.6211" style="stroke:none;stroke-width:0.5;" width="77.8066" x="33" y="100.6211"/><text fill="#FFFFFF" font-family="sans-serif" font-size="14" lengthAdjust="spacing" textLength="15.5723" x="64.1172" y="115.7285">db</text><line style="stroke:none;stroke-width:0.5;" x1="33" x2="110.8066" y1="100.6211" y2="100.6211"/><line style="stroke:none;stroke-width:0.5;" x1="33" x2="110.8066" y1="119.2422" y2="119.2422"/><line style="stroke:none;stroke-width:0.5;" x1="33" x2="33" y1="100.6211" y2="119.2422"/><line style="stroke:none;stroke-width:0.5;" x1="110.8066" x2="110.8066" y1="100.6211" y2="119.2422"/><text fill="#FFFFFF" font-family="sans-serif" font-size="14" lengthAdjust="spacing" textLength="3.8896" x="33" y="136.3496">&#160;</text></g><!--entity DAO--><g class="entity" data-entity="DAO" data-source-line="56" data-uid="ent0004" id="entity_DAO"><rect fill="#F8C735" height="75.8633" rx="7.5" ry="7.5" style="stroke:#F7D46C;stroke-width:2;" width="97.0137" x="198.5" y="58.5"/><text fill="#FFFFFF" font-family="sans-serif" font-size="14" lengthAdjust="spacing" textLength="3.8896" x="208.5" y="83.6074">&#160;</text><text fill="#FFFFFF" font-family="sans-serif" font-size="14" lengthAdjust="spacing" textLength="30.3379" x="231.8379" y="102.2285">DAO</text><text fill="#FFFFFF" font-family="sans-serif" font-size="14" lengthAdjust="spacing" textLength="3.8896" x="208.5" y="120.8496">&#160;</text></g><!--entity REPO--><g class="entity" data-entity="REPO" data-source-line="57" data-uid="ent0005" id="entity_REPO"><rect fill="#6FC539" height="75.8633" rx="7.5" ry="7.5" style="stroke:#91D069;stroke-width:2;" width="118.041" x="436" y="58.5"/><text fill="#FFFFFF" font-family="sans-serif" font-size="14" lengthAdjust="spacing" textLength="3.8896" x="446" y="83.6074">&#160;</text><text fill="#FFFFFF" font-family="sans-serif" font-size="14" lengthAdjust="spacing" textLength="70.8135" x="457.6689" y="102.2285">Repositorio</text><text fill="#FFFFFF" font-family="sans-serif" font-size="14" lengthAdjust="spacing" textLength="3.8896" x="446" y="120.8496">&#160;</text></g><!--entity VM--><g class="entity" data-entity="VM" data-source-line="62" data-uid="ent0007" id="entity_VM"><rect fill="#FFA001" height="75.8633" rx="7.5" ry="7.5" style="stroke:#FAB747;stroke-width:2;" width="111.8135" x="640" y="58.5"/><text fill="#FFFFFF" font-family="sans-serif" font-size="14" lengthAdjust="spacing" textLength="3.8896" x="650" y="83.6074">&#160;</text><text fill="#FFFFFF" font-family="sans-serif" font-size="14" lengthAdjust="spacing" textLength="68.4756" x="661.6689" y="102.2285">ViewModel</text><text fill="#FFFFFF" font-family="sans-serif" font-size="14" lengthAdjust="spacing" textLength="3.8896" x="650" y="120.8496">&#160;</text></g><!--entity VIEW--><g class="entity" data-entity="VIEW" data-source-line="66" data-uid="ent0009" id="entity_VIEW"><rect fill="#019CE3" height="75.8633" rx="7.5" ry="7.5" style="stroke:#3EAEE1;stroke-width:2;" width="112.5791" x="889.5" y="58.5"/><text fill="#FFFFFF" font-family="sans-serif" font-size="14" lengthAdjust="spacing" textLength="3.8896" x="899.5" y="83.6074">&#160;</text><text fill="#FFFFFF" font-family="sans-serif" font-size="14" lengthAdjust="spacing" textLength="30.3447" x="930.6172" y="102.2285">View</text><text fill="#FFFFFF" font-family="sans-serif" font-size="14" lengthAdjust="spacing" textLength="3.8896" x="899.5" y="120.8496">&#160;</text></g><!--link DB to DAO--><g class="link" data-entity-1="DB" data-entity-2="DAO" data-source-line="69" data-uid="lnk10" id="link_DB_DAO"><path d="M127.21,96.5 C151.37,96.5 168.39,96.5 192.46,96.5" fill="none" id="DB-DAO" style="stroke:#181818;stroke-width:1;"/><polygon fill="#181818" points="121.21,96.5,130.21,100.5,126.21,96.5,130.21,92.5,121.21,96.5" style="stroke:#181818;stroke-width:1;"/><polygon fill="#181818" points="198.46,96.5,189.46,92.5,193.46,96.5,189.46,100.5,198.46,96.5" style="stroke:#181818;stroke-width:1;"/><text fill="#000000" font-family="sans-serif" font-size="13" lengthAdjust="spacing" textLength="41.9199" x="139.25" y="89.5283">accede</text></g><!--link DAO to REPO--><g class="link" data-entity-1="DAO" data-entity-2="REPO" data-source-line="70" data-uid="lnk11" id="link_DAO_REPO"><path d="M301.7,96.5 C341.9,96.5 387.1,96.5 429.92,96.5" fill="none" id="DAO-REPO" style="stroke:#181818;stroke-width:1;"/><polygon fill="#181818" points="295.7,96.5,304.7,100.5,300.7,96.5,304.7,92.5,295.7,96.5" style="stroke:#181818;stroke-width:1;"/><polygon fill="#181818" points="435.92,96.5,426.92,92.5,430.92,96.5,426.92,100.5,435.92,96.5" style="stroke:#181818;stroke-width:1;"/><text fill="#000000" font-family="sans-serif" font-size="13" lengthAdjust="spacing" textLength="104.0698" x="313.75" y="89.5283">proporciona datos</text></g><!--link REPO to VM--><g class="link" data-entity-1="REPO" data-entity-2="VM" data-source-line="71" data-uid="lnk12" id="link_REPO_VM"><path d="M560.22,96.5 C587.32,96.5 607.26,96.5 633.96,96.5" fill="none" id="REPO-VM" style="stroke:#181818;stroke-width:1;"/><polygon fill="#181818" points="554.22,96.5,563.22,100.5,559.22,96.5,563.22,92.5,554.22,96.5" style="stroke:#181818;stroke-width:1;"/><polygon fill="#181818" points="639.96,96.5,630.96,92.5,634.96,96.5,630.96,100.5,639.96,96.5" style="stroke:#181818;stroke-width:1;"/><text fill="#000000" font-family="sans-serif" font-size="13" lengthAdjust="spacing" textLength="49.1372" x="572.5" y="114.5283">alimenta</text></g><!--link VM to VIEW--><g class="link" data-entity-1="VM" data-entity-2="VIEW" data-source-line="72" data-uid="lnk13" id="link_VM_VIEW"><path d="M752.1,96.5 C792.99,96.5 842.18,96.5 883.22,96.5" fill="none" id="VM-to-VIEW" style="stroke:#181818;stroke-width:1;"/><polygon fill="#181818" points="889.22,96.5,880.22,92.5,884.22,96.5,880.22,100.5,889.22,96.5" style="stroke:#181818;stroke-width:1;"/><text fill="#000000" font-family="sans-serif" font-size="13" lengthAdjust="spacing" textLength="101.9053" x="770.25" y="89.5283">expone estado UI</text></g><!--reverse link VM to VIEW--><g class="link" data-entity-1="VM" data-entity-2="VIEW" data-source-line="73" data-uid="lnk15" id="link_VM_VIEW"><path d="M757.8694,115.6191 C765.2794,117.3691 766.98,117.5 774.25,118.5 C815.2,124.15 826.3,124.11 867.25,118.5 C874.42,117.52 881.86,116.05 889.18,114.34" fill="none" id="VM-backto-VIEW" style="stroke:#181818;stroke-width:1;"/><polygon fill="#181818" points="752.03,114.24,759.8697,120.2015,756.8961,115.3892,761.7084,112.4157,752.03,114.24" style="stroke:#181818;stroke-width:1;"/><text fill="#000000" font-family="sans-serif" font-size="13" lengthAdjust="spacing" textLength="91.7808" x="775.25" y="114.5283">eventos usuario</text></g><!--SRC=[ZLLRJzim57xthx2o1rwMNbRQKXH56fGXfA5DZB67iGVNFcsj9dPakuKA-E-pSwjfcz8J9VB9kNpVEV5nJkR6PFgytSuI8imoJLfKfctGRGPP8jSf21CoJcQAfEYaoLURTG8Xh6IoD5mAf1TSPCI6O2MNWbrA9K3XRX-XEMU0jG45qgmpG2ZAOsE4hIYWXeXP0lWbrvryvmBkvvmk16YDlzJllqbXBcKY5VxqDEV6PiAUj8mYGbiAbhwVhP8BGXVN9RSyX-U_u-me7E7cCMfoUtjFaX6vmss7sVIC3djzr4XfEcId0te8Ha5s1CvWIlkzKJFEgCiwWz4Xd1M7frGoI8ueQaewdUw1eiXaU3hy2EnZd4vtHA7NZDC30j0zX7DiGSnT1xgN2shSCMEUNYkotfFWbviFt6zrGdllOLey6J5aGhI_rtSuZecoBs2Dzl0hPgXnk0eW5BNBQKMRKGrkNOS274Lvg-Auf50p6bzOMwLPyzyQ9Wp3T-jQYVm9-kmhyMlbmoRLwhK8_BTrXWIFeh2Fl_ue5eyYm4JdkcCautXlo9sT5ysDL5nwKNTNFrsO6oORzrOUPL7adpIsEkziy_8-sDrQzsahekpNDeiwP4FXuTP6rrDMiDW2sPF_fQal1KQrhZ1khlwKA0M0-toXuhEv2UEyTUSu89G2Wm3bdQoDUOUiDLCoauhQ7m5nkq3g01NDgprj8IvBmjtlXGJ8wXkR8s2jy9n90HYq8KpYtpVMord21AQR5B2o2QJ6IxqazdC5w3y0]--></g></svg>