<svg xmlns="http://www.w3.org/2000/svg" contentStyleType="text/css" data-diagram-type="CLASS" height="348px" preserveAspectRatio="none"
    style="width:539px;height:348px;background:#FFFFFF;" version="1.1" viewBox="0 0 539 348" width="539px" zoomAndPan="magnify">
    <title>Diagrama E/R [Recetario]</title>
    <defs>
        <filter height="300%" id="f1x8fxaantdisu" width="300%" x="-1" y="-1">
            <feGaussianBlur result="blurOut" stdDeviation="2" />
            <feColorMatrix in="blurOut" result="blurOut2" type="matrix"
                values="0 0 0 0 0 0 0 0 0 0 0 0 0 0 0 0 0 0 .4 0" />
            <feOffset dx="4" dy="4" in="blurOut2" result="blurOut3" />
            <feBlend in="SourceGraphic" in2="blurOut3" mode="normal" />
        </filter>
    </defs>
    <g>
        <g class="title" data-source-line="6">
            <text fill="#000000" font-family="sans-serif" font-size="14" font-weight="bold"
                lengthAdjust="spacing" textLength="168.0547" x="178.8999" y="25.1074">Diagrama E/R
                [Recetario]
            </text>
        </g>
        <g class="entity" data-entity="RE" data-source-line="57" data-uid="ent0002" id="entity_RE">
            <rect fill="#F2F2F2" filter="url(#f1x8fxaantdisu)" height="114.8438" rx="2.5" ry="2.5"
                style="stroke:#181818;stroke-width:0.5;" width="207.1605" x="10.5" y="46.6211" />
            <path
                d="M13,46.6211 L215.1605,46.6211 A2.5,2.5 0 0 1 217.6605,49.1211 L217.6605,66.2617 L10.5,66.2617 L10.5,49.1211 A2.5,2.5 0 0 1 13,46.6211"
                fill="#FEEDCE" style="stroke:#181818;stroke-width:0.5;" />
            <text fill="#000000" font-family="Arial" font-size="14" font-weight="bold"
                lengthAdjust="spacing" textLength="66.8965" x="80.632" y="61.2949">RECETAS
            </text>
            <line style="stroke:#181818;stroke-width:0.5;" x1="11.5" x2="216.6605" y1="66.2617"
                y2="66.2617" />
            <rect fill="none" height="15.6406" style="stroke:none;stroke-width:1;" width="187.1605"
                x="20.5" y="76.2617" />
            <text fill="#000000" font-family="Arial" font-size="14" lengthAdjust="spacing"
                textLength="62.2275" x="20.5" y="88.9355">INTEGER
            </text>
            <text fill="#000000" font-family="Arial" font-size="14" lengthAdjust="spacing"
                textLength="55.2549" x="109.9551" y="88.9355">idReceta
            </text>
            <text fill="#000000" font-family="Arial" font-size="14" lengthAdjust="spacing"
                textLength="15.5586" x="180.7686" y="88.9355">&#160;&#160;&#160;&#160;
            </text>
            <path
                d="M203.7438,79.069 C202.1338,79.069 200.8271,80.3757 200.8271,81.9857 C200.8271,82.1723 200.8271,82.359 200.8621,82.534 L197.3271,86.069 L197.3271,88.4023 L200.8271,88.4023 L200.8271,86.069 L203.1605,86.069 L203.1605,84.9023 L203.1955,84.8673 C203.3705,84.9023 203.5571,84.9023 203.7438,84.9023 C205.3538,84.9023 206.6605,83.5957 206.6605,81.9857 C206.6605,80.3757 205.3538,79.069 203.7438,79.069 M204.3271,80.2357 C204.9688,80.2357 205.4938,80.7607 205.4938,81.4023 C205.4938,82.044 204.9688,82.569 204.3271,82.569 C203.6855,82.569 203.1605,82.044 203.1605,81.4023 C203.1605,80.7607 203.6855,80.2357 204.3271,80.2357"
                fill="#000000" />
            <text fill="#000000" font-family="Arial" font-size="14" lengthAdjust="spacing"
                textLength="35.7793" x="20.5" y="104.5762">TEXT
            </text>
            <text fill="#000000" font-family="Arial" font-size="14" lengthAdjust="spacing"
                textLength="29.5723" x="109.9551" y="104.5762">titulo
            </text>
            <text fill="#000000" font-family="Arial" font-size="14" lengthAdjust="spacing"
                textLength="35.7793" x="20.5" y="120.2168">TEXT
            </text>
            <text fill="#000000" font-family="Arial" font-size="14" lengthAdjust="spacing"
                textLength="70.8135" x="109.9551" y="120.2168">descripcion
            </text>
            <text fill="#000000" font-family="Arial" font-size="14" lengthAdjust="spacing"
                textLength="35.7793" x="20.5" y="135.8574">TEXT
            </text>
            <text fill="#000000" font-family="Arial" font-size="14" lengthAdjust="spacing"
                textLength="45.917" x="109.9551" y="135.8574">imagen
            </text>
            <text fill="#000000" font-family="Arial" font-size="14" lengthAdjust="spacing"
                textLength="62.2275" x="20.5" y="151.498">INTEGER
            </text>
            <text fill="#000000" font-family="Arial" font-size="14" lengthAdjust="spacing"
                textLength="42.0205" x="109.9551" y="151.498">tiempo
            </text>
            <line style="stroke:none;stroke-width:1;" x1="20.5" x2="207.6605" y1="76.2617"
                y2="76.2617" />
            <line style="stroke:none;stroke-width:1;" x1="20.5" x2="207.6605" y1="91.9023"
                y2="91.9023" />
            <line style="stroke:none;stroke-width:1;" x1="20.5" x2="207.6605" y1="107.543"
                y2="107.543" />
            <line style="stroke:none;stroke-width:1;" x1="20.5" x2="207.6605" y1="123.1836"
                y2="123.1836" />
            <line style="stroke:none;stroke-width:1;" x1="20.5" x2="207.6605" y1="138.8242"
                y2="138.8242" />
            <line style="stroke:none;stroke-width:1;" x1="20.5" x2="207.6605" y1="154.4648"
                y2="154.4648" />
            <line style="stroke:none;stroke-width:1;" x1="20.5" x2="20.5" y1="76.2617"
                y2="154.4648" />
            <line style="stroke:none;stroke-width:1;" x1="106.0654" x2="106.0654" y1="76.2617"
                y2="154.4648" />
            <line style="stroke:none;stroke-width:1;" x1="180.7686" x2="180.7686" y1="76.2617"
                y2="154.4648" />
            <line style="stroke:none;stroke-width:1;" x1="207.6605" x2="207.6605" y1="76.2617"
                y2="154.4648" />
        </g>
        <g class="entity" data-entity="IN" data-source-line="66" data-uid="ent0003" id="entity_IN">
            <rect fill="#F2F2F2" filter="url(#f1x8fxaantdisu)" height="114.8438" rx="2.5" ry="2.5"
                style="stroke:#181818;stroke-width:0.5;" width="223.8545" x="307" y="46.6211" />
            <path
                d="M309.5,46.6211 L528.3545,46.6211 A2.5,2.5 0 0 1 530.8545,49.1211 L530.8545,66.2617 L307,66.2617 L307,49.1211 A2.5,2.5 0 0 1 309.5,46.6211"
                fill="#23D75F" style="stroke:#181818;stroke-width:0.5;" />
            <text fill="#000000" font-family="Arial" font-size="14" font-weight="bold"
                lengthAdjust="spacing" textLength="105.0137" x="366.4204" y="61.2949">INGREDIENTES
            </text>
            <line style="stroke:#181818;stroke-width:0.5;" x1="308" x2="529.8545" y1="66.2617"
                y2="66.2617" />
            <rect fill="none" height="15.6406" style="stroke:none;stroke-width:1;" width="203.8545"
                x="317" y="76.2617" />
            <text fill="#000000" font-family="Arial" font-size="14" lengthAdjust="spacing"
                textLength="62.2275" x="317" y="88.9355">INTEGER
            </text>
            <text fill="#000000" font-family="Arial" font-size="14" lengthAdjust="spacing"
                textLength="80.9512" x="406.4551" y="88.9355">idIngrediente
            </text>
            <text fill="#000000" font-family="Arial" font-size="14" lengthAdjust="spacing"
                textLength="15.5586" x="487.4063" y="88.9355">&#160;&#160;&#160;&#160;
            </text>
            <path
                d="M510.3815,79.069 C508.7715,79.069 507.4648,80.3757 507.4648,81.9857 C507.4648,82.1723 507.4648,82.359 507.4998,82.534 L503.9648,86.069 L503.9648,88.4023 L507.4648,88.4023 L507.4648,86.069 L509.7982,86.069 L509.7982,84.9023 L509.8332,84.8673 C510.0082,84.9023 510.1948,84.9023 510.3815,84.9023 C511.9915,84.9023 513.2982,83.5957 513.2982,81.9857 C513.2982,80.3757 511.9915,79.069 510.3815,79.069 M510.9648,80.2357 C511.6065,80.2357 512.1315,80.7607 512.1315,81.4023 C512.1315,82.044 511.6065,82.569 510.9648,82.569 C510.3232,82.569 509.7982,82.044 509.7982,81.4023 C509.7982,80.7607 510.3232,80.2357 510.9648,80.2357"
                fill="#000000" />
            <text fill="#000000" font-family="Arial" font-size="14" lengthAdjust="spacing"
                textLength="35.7793" x="317" y="104.5762">TEXT
            </text>
            <text fill="#000000" font-family="Arial" font-size="14" lengthAdjust="spacing"
                textLength="47.4688" x="406.4551" y="104.5762">nombre
            </text>
            <text fill="#000000" font-family="Arial" font-size="14" lengthAdjust="spacing"
                textLength="36.5723" x="317" y="120.2168">REAL
            </text>
            <text fill="#000000" font-family="Arial" font-size="14" lengthAdjust="spacing"
                textLength="52.9307" x="406.4551" y="120.2168">cantidad
            </text>
            <text fill="#000000" font-family="Arial" font-size="14" lengthAdjust="spacing"
                textLength="35.7793" x="317" y="135.8574">TEXT
            </text>
            <text fill="#000000" font-family="Arial" font-size="14" lengthAdjust="spacing"
                textLength="42.041" x="406.4551" y="135.8574">unidad
            </text>
            <text fill="#000000" font-family="Arial" font-size="14" lengthAdjust="spacing"
                textLength="62.2275" x="317" y="151.498">INTEGER
            </text>
            <text fill="#000000" font-family="Arial" font-size="14" lengthAdjust="spacing"
                textLength="55.2549" x="406.4551" y="151.498">idReceta
            </text>
            <text fill="#000000" font-family="Arial" font-size="14" lengthAdjust="spacing"
                textLength="17.8896" x="502.9648" y="151.498">FK
            </text>
            <line style="stroke:none;stroke-width:1;" x1="317" x2="520.8545" y1="76.2617"
                y2="76.2617" />
            <line style="stroke:none;stroke-width:1;" x1="317" x2="520.8545" y1="91.9023"
                y2="91.9023" />
            <line style="stroke:none;stroke-width:1;" x1="317" x2="520.8545" y1="107.543"
                y2="107.543" />
            <line style="stroke:none;stroke-width:1;" x1="317" x2="520.8545" y1="123.1836"
                y2="123.1836" />
            <line style="stroke:none;stroke-width:1;" x1="317" x2="520.8545" y1="138.8242"
                y2="138.8242" />
            <line style="stroke:none;stroke-width:1;" x1="317" x2="520.8545" y1="154.4648"
                y2="154.4648" />
            <line style="stroke:none;stroke-width:1;" x1="317" x2="317" y1="76.2617"
                y2="154.4648" />
            <line style="stroke:none;stroke-width:1;" x1="402.5654" x2="402.5654" y1="76.2617"
                y2="154.4648" />
            <line style="stroke:none;stroke-width:1;" x1="487.4063" x2="487.4063" y1="76.2617"
                y2="154.4648" />
            <line style="stroke:none;stroke-width:1;" x1="520.8545" x2="520.8545" y1="76.2617"
                y2="154.4648" />
        </g>
        <g class="entity" data-entity="PA" data-source-line="75" data-uid="ent0004" id="entity_PA">
            <rect fill="#F2F2F2" filter="url(#f1x8fxaantdisu)" height="99.2031" rx="2.5" ry="2.5"
                style="stroke:#181818;stroke-width:0.5;" width="213.7168" x="7" y="240.6211" />
            <path
                d="M9.5,240.6211 L218.2168,240.6211 A2.5,2.5 0 0 1 220.7168,243.1211 L220.7168,260.2617 L7,260.2617 L7,243.1211 A2.5,2.5 0 0 1 9.5,240.6211"
                fill="#1E1EDC" style="stroke:#181818;stroke-width:0.5;" />
            <text fill="#FFFFFF" font-family="Arial" font-size="14" font-weight="bold"
                lengthAdjust="spacing" textLength="49.0137" x="89.3516" y="255.2949">PASOS
            </text>
            <line style="stroke:#181818;stroke-width:0.5;" x1="8" x2="219.7168" y1="260.2617"
                y2="260.2617" />
            <rect fill="none" height="15.6406" style="stroke:none;stroke-width:1;" width="193.7168"
                x="17" y="270.2617" />
            <text fill="#000000" font-family="Arial" font-size="14" lengthAdjust="spacing"
                textLength="62.2275" x="17" y="282.9355">INTEGER
            </text>
            <text fill="#000000" font-family="Arial" font-size="14" lengthAdjust="spacing"
                textLength="42.8066" x="106.4551" y="282.9355">idPaso
            </text>
            <text fill="#000000" font-family="Arial" font-size="14" lengthAdjust="spacing"
                textLength="15.5586" x="177.2686" y="282.9355">&#160;&#160;&#160;&#160;
            </text>
            <path
                d="M200.2438,273.069 C198.6338,273.069 197.3271,274.3757 197.3271,275.9857 C197.3271,276.1723 197.3271,276.359 197.3621,276.534 L193.8271,280.069 L193.8271,282.4023 L197.3271,282.4023 L197.3271,280.069 L199.6605,280.069 L199.6605,278.9023 L199.6955,278.8673 C199.8705,278.9023 200.0571,278.9023 200.2438,278.9023 C201.8538,278.9023 203.1605,277.5957 203.1605,275.9857 C203.1605,274.3757 201.8538,273.069 200.2438,273.069 M200.8271,274.2357 C201.4688,274.2357 201.9938,274.7607 201.9938,275.4023 C201.9938,276.044 201.4688,276.569 200.8271,276.569 C200.1855,276.569 199.6605,276.044 199.6605,275.4023 C199.6605,274.7607 200.1855,274.2357 200.8271,274.2357"
                fill="#000000" />
            <text fill="#000000" font-family="Arial" font-size="14" lengthAdjust="spacing"
                textLength="62.2275" x="17" y="298.5762">INTEGER
            </text>
            <text fill="#000000" font-family="Arial" font-size="14" lengthAdjust="spacing"
                textLength="35.8066" x="106.4551" y="298.5762">orden
            </text>
            <text fill="#000000" font-family="Arial" font-size="14" lengthAdjust="spacing"
                textLength="35.7793" x="17" y="314.2168">TEXT
            </text>
            <text fill="#000000" font-family="Arial" font-size="14" lengthAdjust="spacing"
                textLength="70.8135" x="106.4551" y="314.2168">descripcion
            </text>
            <text fill="#000000" font-family="Arial" font-size="14" lengthAdjust="spacing"
                textLength="62.2275" x="17" y="329.8574">INTEGER
            </text>
            <text fill="#000000" font-family="Arial" font-size="14" lengthAdjust="spacing"
                textLength="55.2549" x="106.4551" y="329.8574">idReceta
            </text>
            <text fill="#000000" font-family="Arial" font-size="14" lengthAdjust="spacing"
                textLength="17.8896" x="192.8271" y="329.8574">FK
            </text>
            <line style="stroke:none;stroke-width:1;" x1="17" x2="210.7168" y1="270.2617"
                y2="270.2617" />
            <line style="stroke:none;stroke-width:1;" x1="17" x2="210.7168" y1="285.9023"
                y2="285.9023" />
            <line style="stroke:none;stroke-width:1;" x1="17" x2="210.7168" y1="301.543"
                y2="301.543" />
            <line style="stroke:none;stroke-width:1;" x1="17" x2="210.7168" y1="317.1836"
                y2="317.1836" />
            <line style="stroke:none;stroke-width:1;" x1="17" x2="210.7168" y1="332.8242"
                y2="332.8242" />
            <line style="stroke:none;stroke-width:1;" x1="17" x2="17" y1="270.2617" y2="332.8242" />
            <line style="stroke:none;stroke-width:1;" x1="102.5654" x2="102.5654" y1="270.2617"
                y2="332.8242" />
            <line style="stroke:none;stroke-width:1;" x1="177.2686" x2="177.2686" y1="270.2617"
                y2="332.8242" />
            <line style="stroke:none;stroke-width:1;" x1="210.7168" x2="210.7168" y1="270.2617"
                y2="332.8242" />
        </g>
        <!--reverse link RE to IN-->
        <g class="link" data-entity-1="RE" data-entity-2="IN" data-source-line="83" data-uid="lnk5"
            id="link_RE_IN">
            <path codeLine="83"
                d="M229.68,104.1211 C258.44,104.1211 277.78,104.1211 306.99,104.1211" fill="none"
                id="RE-backto-IN" style="stroke:#16417C;stroke-width:1;" />
            <polygon fill="#16417C"
                points="217.68,104.1211,223.68,108.1211,229.68,104.1211,223.68,100.1211,217.68,104.1211"
                style="stroke:#16417C;stroke-width:1;" />
            <text fill="#0A72F0" font-family="sans-serif" font-size="13" lengthAdjust="spacing"
                textLength="28.1899" x="246.5854" y="97.1494">tiene
            </text>
            <text fill="#0A72F0" font-family="sans-serif" font-size="13" lengthAdjust="spacing"
                textLength="7.23" x="236.4349" y="118.7628">1
            </text>
            <text fill="#0A72F0" font-family="sans-serif" font-size="13" lengthAdjust="spacing"
                textLength="9.3882" x="289.6403" y="118.7355">N
            </text>
        </g>
        <!--reverse link RE to PA-->
        <g class="link" data-entity-1="RE" data-entity-2="PA" data-source-line="84" data-uid="lnk6"
            id="link_RE_PA">
            <path codeLine="84" d="M114,173.8311 C114,198.9611 114,216.2311 114,240.3611"
                fill="none" id="RE-backto-PA" style="stroke:#16417C;stroke-width:1;" />
            <polygon fill="#16417C"
                points="114,161.8311,110,167.8311,114,173.8311,118,167.8311,114,161.8311"
                style="stroke:#16417C;stroke-width:1;" />
            <text fill="#0A72F0" font-family="sans-serif" font-size="13" lengthAdjust="spacing"
                textLength="49.1499" x="122.2236" y="206.6494">contiene
            </text>
            <text fill="#0A72F0" font-family="sans-serif" font-size="13" lengthAdjust="spacing"
                textLength="7.23" x="99.2076" y="183.5408">1
            </text>
            <text fill="#0A72F0" font-family="sans-serif" font-size="13" lengthAdjust="spacing"
                textLength="9.3882" x="96.9379" y="229.2028">N
            </text>
        </g>
        <!--SRC=[lLHTRzem57tFhx1IQKZJM0fhXrGXf0nCXLPbAF0mQTg3IUx0mx6HROJQfVzzDnzBanBOnCCSAN2_JiwvldPdO-tEt7dUJZ1fzubu7wd4YmGpfXjpjjOiSJgjEM0y_4cKD6SID2W1f-DgzHCYMtt8MN8hW4mAan7gXUHR215OfhdwxZWTQYmNYgn1WkQH8fQj17E6nZuA63a4Lm59VkL6jZwnQBlMQY_ZiH9AawjfFtjUuah7eClOTRwgs5H9Upgou4z0UZSDNy0I8BxcJ3HJCu94AftK0c51IgCMSbjv5niMgmENQ_A32GDE5TW0Gw8lmjh5KJePqohd-NLvqKtIH6b3_XVqupRXRaJRrdZHWPKISIFyV9hgJAurn1oa1NCfuVw7oU1s-fy8pvbH5pFjqHxszWpJmuPRk9HfZI_JMXrgB1-uX3ySFjxq1kFMwVS7_Ubr2JFqolE6vr5Q7gD2usnu36Guh4_PQ4IC1Rm2xECEdF9WkY4TqwM_S0ap9AJ79GMpuPNLJ9eTqxZ_x-h6A9q5ItfFmu9aIdXSrAPvtPijF8xI72DTqg_Bb5Xkzq8rN4WuqdmNSIKRVfuml5fAL_cP302I7G9W0nigwmFQhdKMt8TqCgE8L0YU1QUgBv1TGpYbNQfafQ5qXTH_I4d4YZrhvErbpLK9RtHs-lcu0_d4jqkV-uilXUQv_ph_0grPvR78YcbsXyk_RF5PMPqGy2R0P1nbd4eN8psNlErgljxORcu7sGity2wtS2WaP01kdj_3FvZUBHYxGMQYy3mtmdEKPRlERm00]-->
    </g>
</svg>