<svg xmlns="http://www.w3.org/2000/svg" xmlns:xlink="http://www.w3.org/1999/xlink" contentStyleType="text/css" data-diagram-type="CLASS" height="309px" preserveAspectRatio="none" style="width:541px;height:309px;background:#FFFFFF;" version="1.1" viewBox="0 0 541 309" width="541px" zoomAndPan="magnify"><defs><filter height="300%" id="f1nnv3uaejut60" width="300%" x="-1" y="-1"><feGaussianBlur result="blurOut" stdDeviation="2"/><feColorMatrix in="blurOut" result="blurOut2" type="matrix" values="0 0 0 0 0 0 0 0 0 0 0 0 0 0 0 0 0 0 .4 0"/><feOffset dx="4" dy="4" in="blurOut2" result="blurOut3"/><feBlend in="SourceGraphic" in2="blurOut3" mode="normal"/></filter></defs><g><g class="entity" data-entity="RE" data-source-line="57" data-uid="ent0002" id="entity_RE"><rect fill="#F2F2F2" filter="url(#f1nnv3uaejut60)" height="114.8438" rx="2.5" ry="2.5" style="stroke:#181818;stroke-width:0.5;" width="207.1605" x="12" y="7"/><path d="M14.5,7 L216.6605,7 A2.5,2.5 0 0 1 219.1605,9.5 L219.1605,26.6406 L12,26.6406 L12,9.5 A2.5,2.5 0 0 1 14.5,7" fill="#FEEDCE" style="stroke:#181818;stroke-width:0.5;"/><text fill="#000000" font-family="Arial" font-size="14" font-weight="bold" lengthAdjust="spacing" textLength="66.8965" x="82.132" y="21.6738">RECETAS</text><line style="stroke:#181818;stroke-width:0.5;" x1="13" x2="218.1605" y1="26.6406" y2="26.6406"/><rect fill="none" height="15.6406" style="stroke:none;stroke-width:1;" width="187.1605" x="22" y="36.6406"/><text fill="#000000" font-family="Arial" font-size="14" lengthAdjust="spacing" textLength="62.2275" x="22" y="49.3145">INTEGER</text><text fill="#000000" font-family="Arial" font-size="14" lengthAdjust="spacing" textLength="55.2549" x="111.4551" y="49.3145">idReceta</text><text fill="#000000" font-family="Arial" font-size="14" lengthAdjust="spacing" textLength="15.5586" x="182.2686" y="49.3145">&#160;&#160;&#160;&#160;</text><path d="M205.2438,39.4479 C203.6338,39.4479 202.3271,40.7546 202.3271,42.3646 C202.3271,42.5512 202.3271,42.7379 202.3621,42.9129 L198.8271,46.4479 L198.8271,48.7813 L202.3271,48.7813 L202.3271,46.4479 L204.6605,46.4479 L204.6605,45.2813 L204.6955,45.2462 C204.8705,45.2813 205.0571,45.2813 205.2438,45.2813 C206.8538,45.2813 208.1605,43.9746 208.1605,42.3646 C208.1605,40.7546 206.8538,39.4479 205.2438,39.4479 M205.8271,40.6146 C206.4688,40.6146 206.9938,41.1396 206.9938,41.7813 C206.9938,42.4229 206.4688,42.9479 205.8271,42.9479 C205.1855,42.9479 204.6605,42.4229 204.6605,41.7813 C204.6605,41.1396 205.1855,40.6146 205.8271,40.6146" fill="#000000"/><text fill="#000000" font-family="Arial" font-size="14" lengthAdjust="spacing" textLength="35.7793" x="22" y="64.9551">TEXT</text><text fill="#000000" font-family="Arial" font-size="14" lengthAdjust="spacing" textLength="29.5723" x="111.4551" y="64.9551">titulo</text><text fill="#000000" font-family="Arial" font-size="14" lengthAdjust="spacing" textLength="35.7793" x="22" y="80.5957">TEXT</text><text fill="#000000" font-family="Arial" font-size="14" lengthAdjust="spacing" textLength="70.8135" x="111.4551" y="80.5957">descripcion</text><text fill="#000000" font-family="Arial" font-size="14" lengthAdjust="spacing" textLength="35.7793" x="22" y="96.2363">TEXT</text><text fill="#000000" font-family="Arial" font-size="14" lengthAdjust="spacing" textLength="45.917" x="111.4551" y="96.2363">imagen</text><text fill="#000000" font-family="Arial" font-size="14" lengthAdjust="spacing" textLength="62.2275" x="22" y="111.877">INTEGER</text><text fill="#000000" font-family="Arial" font-size="14" lengthAdjust="spacing" textLength="42.0205" x="111.4551" y="111.877">tiempo</text><line style="stroke:none;stroke-width:1;" x1="22" x2="209.1605" y1="36.6406" y2="36.6406"/><line style="stroke:none;stroke-width:1;" x1="22" x2="209.1605" y1="52.2813" y2="52.2813"/><line style="stroke:none;stroke-width:1;" x1="22" x2="209.1605" y1="67.9219" y2="67.9219"/><line style="stroke:none;stroke-width:1;" x1="22" x2="209.1605" y1="83.5625" y2="83.5625"/><line style="stroke:none;stroke-width:1;" x1="22" x2="209.1605" y1="99.2031" y2="99.2031"/><line style="stroke:none;stroke-width:1;" x1="22" x2="209.1605" y1="114.8438" y2="114.8438"/><line style="stroke:none;stroke-width:1;" x1="22" x2="22" y1="36.6406" y2="114.8438"/><line style="stroke:none;stroke-width:1;" x1="107.5654" x2="107.5654" y1="36.6406" y2="114.8438"/><line style="stroke:none;stroke-width:1;" x1="182.2686" x2="182.2686" y1="36.6406" y2="114.8438"/><line style="stroke:none;stroke-width:1;" x1="209.1605" x2="209.1605" y1="36.6406" y2="114.8438"/></g><g class="entity" data-entity="IN" data-source-line="66" data-uid="ent0003" id="entity_IN"><rect fill="#F2F2F2" filter="url(#f1nnv3uaejut60)" height="114.8438" rx="2.5" ry="2.5" style="stroke:#181818;stroke-width:0.5;" width="223.8545" x="308.5" y="7"/><path d="M311,7 L529.8545,7 A2.5,2.5 0 0 1 532.3545,9.5 L532.3545,26.6406 L308.5,26.6406 L308.5,9.5 A2.5,2.5 0 0 1 311,7" fill="#23D75F" style="stroke:#181818;stroke-width:0.5;"/><text fill="#000000" font-family="Arial" font-size="14" font-weight="bold" lengthAdjust="spacing" textLength="105.0137" x="367.9204" y="21.6738">INGREDIENTES</text><line style="stroke:#181818;stroke-width:0.5;" x1="309.5" x2="531.3545" y1="26.6406" y2="26.6406"/><rect fill="none" height="15.6406" style="stroke:none;stroke-width:1;" width="203.8545" x="318.5" y="36.6406"/><text fill="#000000" font-family="Arial" font-size="14" lengthAdjust="spacing" textLength="62.2275" x="318.5" y="49.3145">INTEGER</text><text fill="#000000" font-family="Arial" font-size="14" lengthAdjust="spacing" textLength="80.9512" x="407.9551" y="49.3145">idIngrediente</text><text fill="#000000" font-family="Arial" font-size="14" lengthAdjust="spacing" textLength="15.5586" x="488.9063" y="49.3145">&#160;&#160;&#160;&#160;</text><path d="M511.8815,39.4479 C510.2715,39.4479 508.9648,40.7546 508.9648,42.3646 C508.9648,42.5512 508.9648,42.7379 508.9998,42.9129 L505.4648,46.4479 L505.4648,48.7813 L508.9648,48.7813 L508.9648,46.4479 L511.2982,46.4479 L511.2982,45.2813 L511.3332,45.2462 C511.5082,45.2813 511.6948,45.2813 511.8815,45.2813 C513.4915,45.2813 514.7982,43.9746 514.7982,42.3646 C514.7982,40.7546 513.4915,39.4479 511.8815,39.4479 M512.4648,40.6146 C513.1065,40.6146 513.6315,41.1396 513.6315,41.7813 C513.6315,42.4229 513.1065,42.9479 512.4648,42.9479 C511.8232,42.9479 511.2982,42.4229 511.2982,41.7813 C511.2982,41.1396 511.8232,40.6146 512.4648,40.6146" fill="#000000"/><text fill="#000000" font-family="Arial" font-size="14" lengthAdjust="spacing" textLength="35.7793" x="318.5" y="64.9551">TEXT</text><text fill="#000000" font-family="Arial" font-size="14" lengthAdjust="spacing" textLength="47.4688" x="407.9551" y="64.9551">nombre</text><text fill="#000000" font-family="Arial" font-size="14" lengthAdjust="spacing" textLength="36.5723" x="318.5" y="80.5957">REAL</text><text fill="#000000" font-family="Arial" font-size="14" lengthAdjust="spacing" textLength="52.9307" x="407.9551" y="80.5957">cantidad</text><text fill="#000000" font-family="Arial" font-size="14" lengthAdjust="spacing" textLength="35.7793" x="318.5" y="96.2363">TEXT</text><text fill="#000000" font-family="Arial" font-size="14" lengthAdjust="spacing" textLength="42.041" x="407.9551" y="96.2363">unidad</text><text fill="#000000" font-family="Arial" font-size="14" lengthAdjust="spacing" textLength="62.2275" x="318.5" y="111.877">INTEGER</text><text fill="#000000" font-family="Arial" font-size="14" lengthAdjust="spacing" textLength="73.9307" x="407.9551" y="111.877">idReceta_fk</text><text fill="#000000" font-family="Arial" font-size="14" lengthAdjust="spacing" textLength="17.8896" x="504.4648" y="111.877">FK</text><line style="stroke:none;stroke-width:1;" x1="318.5" x2="522.3545" y1="36.6406" y2="36.6406"/><line style="stroke:none;stroke-width:1;" x1="318.5" x2="522.3545" y1="52.2813" y2="52.2813"/><line style="stroke:none;stroke-width:1;" x1="318.5" x2="522.3545" y1="67.9219" y2="67.9219"/><line style="stroke:none;stroke-width:1;" x1="318.5" x2="522.3545" y1="83.5625" y2="83.5625"/><line style="stroke:none;stroke-width:1;" x1="318.5" x2="522.3545" y1="99.2031" y2="99.2031"/><line style="stroke:none;stroke-width:1;" x1="318.5" x2="522.3545" y1="114.8438" y2="114.8438"/><line style="stroke:none;stroke-width:1;" x1="318.5" x2="318.5" y1="36.6406" y2="114.8438"/><line style="stroke:none;stroke-width:1;" x1="404.0654" x2="404.0654" y1="36.6406" y2="114.8438"/><line style="stroke:none;stroke-width:1;" x1="488.9063" x2="488.9063" y1="36.6406" y2="114.8438"/><line style="stroke:none;stroke-width:1;" x1="522.3545" x2="522.3545" y1="36.6406" y2="114.8438"/></g><g class="entity" data-entity="PA" data-source-line="75" data-uid="ent0004" id="entity_PA"><rect fill="#F2F2F2" filter="url(#f1nnv3uaejut60)" height="99.2031" rx="2.5" ry="2.5" style="stroke:#181818;stroke-width:0.5;" width="216.834" x="7" y="201"/><path d="M9.5,201 L221.334,201 A2.5,2.5 0 0 1 223.834,203.5 L223.834,220.6406 L7,220.6406 L7,203.5 A2.5,2.5 0 0 1 9.5,201" fill="#1E1EDC" style="stroke:#181818;stroke-width:0.5;"/><text fill="#FFFFFF" font-family="Arial" font-size="14" font-weight="bold" lengthAdjust="spacing" textLength="49.0137" x="90.9102" y="215.6738">PASOS</text><line style="stroke:#181818;stroke-width:0.5;" x1="8" x2="222.834" y1="220.6406" y2="220.6406"/><rect fill="none" height="15.6406" style="stroke:none;stroke-width:1;" width="196.834" x="17" y="230.6406"/><text fill="#000000" font-family="Arial" font-size="14" lengthAdjust="spacing" textLength="62.2275" x="17" y="243.3145">INTEGER</text><text fill="#000000" font-family="Arial" font-size="14" lengthAdjust="spacing" textLength="42.8066" x="106.4551" y="243.3145">idPaso</text><text fill="#000000" font-family="Arial" font-size="14" lengthAdjust="spacing" textLength="15.5586" x="180.3857" y="243.3145">&#160;&#160;&#160;&#160;</text><path d="M203.361,233.4479 C201.751,233.4479 200.4443,234.7546 200.4443,236.3646 C200.4443,236.5512 200.4443,236.7379 200.4793,236.9129 L196.9443,240.4479 L196.9443,242.7813 L200.4443,242.7813 L200.4443,240.4479 L202.7777,240.4479 L202.7777,239.2813 L202.8127,239.2463 C202.9877,239.2813 203.1743,239.2813 203.361,239.2813 C204.971,239.2813 206.2777,237.9746 206.2777,236.3646 C206.2777,234.7546 204.971,233.4479 203.361,233.4479 M203.9443,234.6146 C204.586,234.6146 205.111,235.1396 205.111,235.7813 C205.111,236.4229 204.586,236.9479 203.9443,236.9479 C203.3027,236.9479 202.7777,236.4229 202.7777,235.7813 C202.7777,235.1396 203.3027,234.6146 203.9443,234.6146" fill="#000000"/><text fill="#000000" font-family="Arial" font-size="14" lengthAdjust="spacing" textLength="62.2275" x="17" y="258.9551">INTEGER</text><text fill="#000000" font-family="Arial" font-size="14" lengthAdjust="spacing" textLength="35.8066" x="106.4551" y="258.9551">orden</text><text fill="#000000" font-family="Arial" font-size="14" lengthAdjust="spacing" textLength="35.7793" x="17" y="274.5957">TEXT</text><text fill="#000000" font-family="Arial" font-size="14" lengthAdjust="spacing" textLength="70.8135" x="106.4551" y="274.5957">descripcion</text><text fill="#000000" font-family="Arial" font-size="14" lengthAdjust="spacing" textLength="62.2275" x="17" y="290.2363">INTEGER</text><text fill="#000000" font-family="Arial" font-size="14" lengthAdjust="spacing" textLength="73.9307" x="106.4551" y="290.2363">idReceta_fk</text><text fill="#000000" font-family="Arial" font-size="14" lengthAdjust="spacing" textLength="17.8896" x="195.9443" y="290.2363">FK</text><line style="stroke:none;stroke-width:1;" x1="17" x2="213.834" y1="230.6406" y2="230.6406"/><line style="stroke:none;stroke-width:1;" x1="17" x2="213.834" y1="246.2813" y2="246.2813"/><line style="stroke:none;stroke-width:1;" x1="17" x2="213.834" y1="261.9219" y2="261.9219"/><line style="stroke:none;stroke-width:1;" x1="17" x2="213.834" y1="277.5625" y2="277.5625"/><line style="stroke:none;stroke-width:1;" x1="17" x2="213.834" y1="293.2031" y2="293.2031"/><line style="stroke:none;stroke-width:1;" x1="17" x2="17" y1="230.6406" y2="293.2031"/><line style="stroke:none;stroke-width:1;" x1="102.5654" x2="102.5654" y1="230.6406" y2="293.2031"/><line style="stroke:none;stroke-width:1;" x1="180.3857" x2="180.3857" y1="230.6406" y2="293.2031"/><line style="stroke:none;stroke-width:1;" x1="213.834" x2="213.834" y1="230.6406" y2="293.2031"/></g><!--reverse link RE to IN--><g class="link" data-entity-1="RE" data-entity-2="IN" data-source-line="83" data-uid="lnk5" id="link_RE_IN"><path codeLine="83" d="M231.18,64.5 C259.94,64.5 279.28,64.5 308.49,64.5" fill="none" id="RE-backto-IN" style="stroke:#16417C;stroke-width:1;"/><polygon fill="#16417C" points="219.18,64.5,225.18,68.5,231.18,64.5,225.18,60.5,219.18,64.5" style="stroke:#16417C;stroke-width:1;"/><text fill="#0A72F0" font-family="sans-serif" font-size="13" lengthAdjust="spacing" textLength="28.1899" x="248.0854" y="57.5283">tiene</text><text fill="#0A72F0" font-family="sans-serif" font-size="13" lengthAdjust="spacing" textLength="7.23" x="237.9349" y="79.1417">1</text><text fill="#0A72F0" font-family="sans-serif" font-size="13" lengthAdjust="spacing" textLength="9.3882" x="291.1403" y="79.1144">N</text></g><!--reverse link RE to PA--><g class="link" data-entity-1="RE" data-entity-2="PA" data-source-line="84" data-uid="lnk6" id="link_RE_PA"><path codeLine="84" d="M115.5,134.21 C115.5,159.34 115.5,176.61 115.5,200.74" fill="none" id="RE-backto-PA" style="stroke:#16417C;stroke-width:1;"/><polygon fill="#16417C" points="115.5,122.21,111.5,128.21,115.5,134.21,119.5,128.21,115.5,122.21" style="stroke:#16417C;stroke-width:1;"/><text fill="#0A72F0" font-family="sans-serif" font-size="13" lengthAdjust="spacing" textLength="49.1499" x="123.7236" y="167.0283">contiene</text><text fill="#0A72F0" font-family="sans-serif" font-size="13" lengthAdjust="spacing" textLength="7.23" x="100.7076" y="143.9197">1</text><text fill="#0A72F0" font-family="sans-serif" font-size="13" lengthAdjust="spacing" textLength="9.3882" x="98.4297" y="189.5817">N</text></g><!--SRC=[lLHjRzem4FwUNs6bqf2cCGfhXrGXf0nCXLOn5FWmQPecaro3XsCZsmZHfVzzbvUcIGdjn8SP2V3TS-VdkJkxjRPsQsuwdQrWqkvYyJ5GSISGp9Xso5caMUoq6Z5WElWJAsbU0MXG0axxrUet1BOyo6cH9RS2o3WtC48xFldXGm2MQQv-8e8QouKY4KZGF534ifLWpi3OWu2XGt3bIScVR9EkBopOH5hjP3XIGcboCUcbdsU_qY7emdUPhT8tKTAUzYpu0v3kLSqsOp4GJtCcwj2K895AnnM7dvFIg8LSbzR5ceLgpsL4xfamu9IEDJ0a-YoiMHobun4jCOylm_DgadgMfip_alsuJDYDODFepokmKYAikHzFKvtAI4F8GLemvnBkVHhthoV_YV2S6NKsqoxjOcrVORfVSmldCgtmPLghVONb7PVmnE7pLRS_Qfn-hz-RN1Pf1ftYlk5zb9Q7gD0uQnu26GogKpOS4cC17m5xs89JN4pNfoEwz1OkOORuz3WaPpQui9f9isKQ-_-XkXacqzcItb8_9vaG7kQnIHRtRWE7OPBbI9Rq-p8XbjkTK3KJ4WuqtmPSoPgTnmoVbi9K79CcW7YB2R20DPNL0MtMEftT-dGyfPWf5poTdOe-GtObmodjKiKh3ON9fzvTGWAMzwo6sycAgHJ-LDbVzvliWCdNuo9aGz-iVkujlkMovzvB_1boqyXZdINPz1cNRtJvBMKj7_0zG3mEDCwcYvwkIzwtDO_MjftjP-aNjl4cs-5eI4WJk1c-YtyGtiv9kxDqYzepR82tAKMxpby0]--></g></svg>