<svg xmlns="http://www.w3.org/2000/svg" xmlns:xlink="http://www.w3.org/1999/xlink" contentStyleType="text/css" data-diagram-type="CLASS" height="1147px" preserveAspectRatio="none" style="width:697px;height:1147px;background:#FFFFFF;" version="1.1" viewBox="0 0 697 1147" width="697px" zoomAndPan="magnify"><defs/><g><!--cluster View--><g class="cluster" data-entity="View" data-source-line="6" data-uid="ent0002" id="cluster_View"><path d="M183.5,6.0137 L216.4033,6.0137 A3.75,3.75 0 0 1 218.9033,8.5137 L225.9033,30.6348 L414.5,30.6348 A2.5,2.5 0 0 1 417,33.1348 L417,197.5137 A2.5,2.5 0 0 1 414.5,200.0137 L183.5,200.0137 A2.5,2.5 0 0 1 181,197.5137 L181,8.5137 A2.5,2.5 0 0 1 183.5,6.0137" fill="none" style="stroke:#000000;stroke-width:1.5;"/><line style="stroke:#000000;stroke-width:1.5;" x1="181" x2="225.9033" y1="30.6348" y2="30.6348"/><text fill="#000000" font-family="sans-serif" font-size="14" font-weight="bold" lengthAdjust="spacing" textLength="31.9033" x="185" y="23.1211">View</text></g><!--cluster ViewModel--><g class="cluster" data-entity="ViewModel" data-source-line="16" data-uid="ent0004" id="cluster_ViewModel"><path d="M143.5,251.0137 L216.8447,251.0137 A3.75,3.75 0 0 1 219.3447,253.5137 L226.3447,275.6348 L454.5,275.6348 A2.5,2.5 0 0 1 457,278.1348 L457,435.5137 A2.5,2.5 0 0 1 454.5,438.0137 L143.5,438.0137 A2.5,2.5 0 0 1 141,435.5137 L141,253.5137 A2.5,2.5 0 0 1 143.5,251.0137" fill="none" style="stroke:#000000;stroke-width:1.5;"/><line style="stroke:#000000;stroke-width:1.5;" x1="141" x2="226.3447" y1="275.6348" y2="275.6348"/><text fill="#000000" font-family="sans-serif" font-size="14" font-weight="bold" lengthAdjust="spacing" textLength="72.3447" x="145" y="268.1211">ViewModel</text></g><!--cluster Model--><g class="cluster" data-entity="Model" data-source-line="26" data-uid="ent0006" id="cluster_Model"><path d="M8.5,489.0137 L49.9414,489.0137 A3.75,3.75 0 0 1 52.4414,491.5137 L59.4414,513.6348 L687.5,513.6348 A2.5,2.5 0 0 1 690,516.1348 L690,1137.5137 A2.5,2.5 0 0 1 687.5,1140.0137 L8.5,1140.0137 A2.5,2.5 0 0 1 6,1137.5137 L6,491.5137 A2.5,2.5 0 0 1 8.5,489.0137" fill="none" style="stroke:#000000;stroke-width:1.5;"/><line style="stroke:#000000;stroke-width:1.5;" x1="6" x2="59.4414" y1="513.6348" y2="513.6348"/><text fill="#000000" font-family="sans-serif" font-size="14" font-weight="bold" lengthAdjust="spacing" textLength="40.4414" x="10" y="506.1211">Model</text></g><!--cluster Implementaci?n Room--><g class="cluster" data-entity="Implementaci.n Room" data-source-line="57" data-uid="ent0010" id="cluster_Implementaci.n Room"><path d="M143.5,937.0137 L294.6309,937.0137 A3.75,3.75 0 0 1 297.1309,939.5137 L304.1309,961.6348 L591.5,961.6348 A2.5,2.5 0 0 1 594,964.1348 L594,1113.5137 A2.5,2.5 0 0 1 591.5,1116.0137 L143.5,1116.0137 A2.5,2.5 0 0 1 141,1113.5137 L141,939.5137 A2.5,2.5 0 0 1 143.5,937.0137" fill="none" style="stroke:#000000;stroke-width:1.5;"/><line style="stroke:#000000;stroke-width:1.5;" x1="141" x2="304.1309" y1="961.6348" y2="961.6348"/><text fill="#000000" font-family="sans-serif" font-size="14" font-weight="bold" lengthAdjust="spacing" textLength="150.1309" x="145" y="954.1211">Implementaci&#243;n Room</text></g><!--class ActivityFragment--><g class="entity" data-entity="ActivityFragment" data-source-line="7" data-uid="ent0003" id="entity_ActivityFragment"><rect fill="#F1F1F1" height="141.1055" rx="2.5" ry="2.5" style="stroke:#181818;stroke-width:0.5;" width="204.1855" x="197" y="43.0137"/><ellipse cx="244.636" cy="59.0137" fill="#ADD1B2" rx="11" ry="11" style="stroke:#181818;stroke-width:1;"/><path d="M247.4016,54.8887 Q247.5579,54.6699 247.7454,54.5605 Q247.9329,54.4512 248.1516,54.4512 Q248.5266,54.4512 248.761,54.7168 Q248.9954,54.9668 248.9954,55.5762 L248.9954,57.0293 Q248.9954,57.6387 248.761,57.9043 Q248.5266,58.1699 248.1516,58.1699 Q247.8079,58.1699 247.6047,57.9668 Q247.4016,57.7793 247.2922,57.2637 Q247.2454,56.9043 247.0579,56.7168 Q246.7297,56.3418 246.1204,56.123 Q245.511,55.9043 244.886,55.9043 Q244.1204,55.9043 243.4797,56.2324 Q242.8547,56.5605 242.3547,57.3105 Q241.8704,58.0605 241.8704,59.0918 L241.8704,60.1855 Q241.8704,61.4199 242.761,62.248 Q243.6516,63.0605 245.2454,63.0605 Q246.1829,63.0605 246.8391,62.8105 Q247.2297,62.6543 247.6516,62.2168 Q247.9172,61.9512 248.0579,61.873 Q248.2141,61.7949 248.4172,61.7949 Q248.7454,61.7949 248.9954,62.0605 Q249.261,62.3105 249.261,62.6543 Q249.261,62.998 248.9172,63.4043 Q248.4172,63.9824 247.6204,64.3105 Q246.5422,64.7637 245.2454,64.7637 Q243.7297,64.7637 242.5266,64.1387 Q241.5422,63.6387 240.8547,62.5762 Q240.1672,61.498 240.1672,60.2168 L240.1672,59.0605 Q240.1672,57.7324 240.7766,56.5918 Q241.4016,55.4355 242.4954,54.8262 Q243.5891,54.2012 244.8235,54.2012 Q245.5579,54.2012 246.1985,54.373 Q246.8547,54.5293 247.4016,54.8887 Z " fill="#000000"/><text fill="#000000" font-family="sans-serif" font-size="13" lengthAdjust="spacing" textLength="100.4136" x="265.136" y="64.3965">Activity/Fragment</text><line style="stroke:#181818;stroke-width:0.5;" x1="198" x2="400.1855" y1="75.0137" y2="75.0137"/><rect fill="none" height="6" style="stroke:#C82930;stroke-width:1;" width="6" x="205" y="86.8242"/><text fill="#000000" font-family="sans-serif" font-size="14" lengthAdjust="spacing" textLength="66.1309" x="217" y="94.1211">view: View</text><rect fill="none" height="6" style="stroke:#C82930;stroke-width:1;" width="6" x="205" y="105.4453"/><text fill="#000000" font-family="sans-serif" font-size="14" lengthAdjust="spacing" textLength="178.1855" x="217" y="112.7422">viewModel: ClaseViewModel</text><line style="stroke:#181818;stroke-width:0.5;" x1="198" x2="400.1855" y1="120.2559" y2="120.2559"/><ellipse cx="208" cy="135.0664" fill="#84BE84" rx="3" ry="3" style="stroke:#038048;stroke-width:1;"/><text fill="#000000" font-family="sans-serif" font-size="14" lengthAdjust="spacing" textLength="66.917" x="217" y="139.3633">onCreate()</text><rect fill="#F24D5C" height="6" style="stroke:#C82930;stroke-width:1;" width="6" x="205" y="150.6875"/><text fill="#000000" font-family="sans-serif" font-size="14" lengthAdjust="spacing" textLength="132.2686" x="217" y="157.9844">observarViewModel()</text><rect fill="#F24D5C" height="6" style="stroke:#C82930;stroke-width:1;" width="6" x="205" y="169.3086"/><text fill="#000000" font-family="sans-serif" font-size="14" lengthAdjust="spacing" textLength="83.2412" x="217" y="176.6055">actualizarUI()</text></g><!--class ClaseViewModel--><g class="entity" data-entity="ClaseViewModel" data-source-line="17" data-uid="ent0005" id="entity_ClaseViewModel"><rect fill="#F1F1F1" height="133.7363" rx="2.5" ry="2.5" style="stroke:#181818;stroke-width:0.5;" width="282.7988" x="157.5" y="288.0137"/><ellipse cx="217.2666" cy="309.6396" fill="#ADD1B2" rx="11" ry="11" style="stroke:#181818;stroke-width:1;"/><path d="M220.0322,305.5146 Q220.1885,305.2959 220.376,305.1865 Q220.5635,305.0771 220.7822,305.0771 Q221.1572,305.0771 221.3916,305.3428 Q221.626,305.5928 221.626,306.2021 L221.626,307.6553 Q221.626,308.2646 221.3916,308.5303 Q221.1572,308.7959 220.7822,308.7959 Q220.4385,308.7959 220.2354,308.5928 Q220.0322,308.4053 219.9229,307.8896 Q219.876,307.5303 219.6885,307.3428 Q219.3604,306.9678 218.751,306.749 Q218.1416,306.5303 217.5166,306.5303 Q216.751,306.5303 216.1104,306.8584 Q215.4854,307.1865 214.9854,307.9365 Q214.501,308.6865 214.501,309.7178 L214.501,310.8115 Q214.501,312.0459 215.3916,312.874 Q216.2822,313.6865 217.876,313.6865 Q218.8135,313.6865 219.4697,313.4365 Q219.8604,313.2803 220.2822,312.8428 Q220.5479,312.5771 220.6885,312.499 Q220.8447,312.4209 221.0479,312.4209 Q221.376,312.4209 221.626,312.6865 Q221.8916,312.9365 221.8916,313.2803 Q221.8916,313.624 221.5479,314.0303 Q221.0479,314.6084 220.251,314.9365 Q219.1729,315.3896 217.876,315.3896 Q216.3604,315.3896 215.1572,314.7646 Q214.1729,314.2646 213.4854,313.2021 Q212.7979,312.124 212.7979,310.8428 L212.7979,309.6865 Q212.7979,308.3584 213.4072,307.2178 Q214.0322,306.0615 215.126,305.4521 Q216.2197,304.8271 217.4541,304.8271 Q218.1885,304.8271 218.8291,304.999 Q219.4854,305.1553 220.0322,305.5146 Z " fill="#000000"/><text fill="#000000" font-family="sans-serif" font-size="12" font-style="italic" lengthAdjust="spacing" textLength="158.7656" x="235.7666" y="305.9629">&#171;extends AndroidViewModel&#187;</text><text fill="#000000" font-family="sans-serif" font-size="13" lengthAdjust="spacing" textLength="96.8208" x="266.739" y="323.0029">ClaseViewModel</text><line style="stroke:#181818;stroke-width:0.5;" x1="158.5" x2="439.2988" y1="331.2656" y2="331.2656"/><rect fill="none" height="6" style="stroke:#C82930;stroke-width:1;" width="6" x="165.5" y="343.0762"/><text fill="#000000" font-family="sans-serif" font-size="14" lengthAdjust="spacing" textLength="143.958" x="177.5" y="350.373">repositorio: Repositorio</text><rect fill="none" height="6" style="stroke:#C82930;stroke-width:1;" width="6" x="165.5" y="361.6973"/><text fill="#000000" font-family="sans-serif" font-size="14" lengthAdjust="spacing" textLength="217.8955" x="177.5" y="368.9941">valorMutable: MutableLiveData&lt;T&gt;</text><rect fill="none" height="6" style="stroke:#C82930;stroke-width:1;" width="6" x="165.5" y="380.3184"/><text fill="#000000" font-family="sans-serif" font-size="14" lengthAdjust="spacing" textLength="212.4541" x="177.5" y="387.6152">listaInmutable: LiveData&lt;List&lt;T&gt;&gt;</text><line style="stroke:#181818;stroke-width:0.5;" x1="158.5" x2="439.2988" y1="395.1289" y2="395.1289"/><ellipse cx="168.5" cy="409.9395" fill="#84BE84" rx="3" ry="3" style="stroke:#038048;stroke-width:1;"/><text fill="#000000" font-family="sans-serif" font-size="14" lengthAdjust="spacing" textLength="256.7988" x="177.5" y="414.2363">ClaseViewModel(application: Application)</text></g><!--class Repositorio--><g class="entity" data-entity="Repositorio" data-source-line="27" data-uid="ent0007" id="entity_Repositorio"><rect fill="#F1F1F1" height="103.8633" rx="2.5" ry="2.5" style="stroke:#181818;stroke-width:0.5;" width="207.3027" x="195.5" y="526.0137"/><ellipse cx="262.0237" cy="542.0137" fill="#ADD1B2" rx="11" ry="11" style="stroke:#181818;stroke-width:1;"/><path d="M264.7893,537.8887 Q264.9456,537.6699 265.1331,537.5605 Q265.3206,537.4512 265.5393,537.4512 Q265.9143,537.4512 266.1487,537.7168 Q266.3831,537.9668 266.3831,538.5762 L266.3831,540.0293 Q266.3831,540.6387 266.1487,540.9043 Q265.9143,541.1699 265.5393,541.1699 Q265.1956,541.1699 264.9924,540.9668 Q264.7893,540.7793 264.6799,540.2637 Q264.6331,539.9043 264.4456,539.7168 Q264.1174,539.3418 263.5081,539.123 Q262.8987,538.9043 262.2737,538.9043 Q261.5081,538.9043 260.8674,539.2324 Q260.2424,539.5605 259.7424,540.3105 Q259.2581,541.0605 259.2581,542.0918 L259.2581,543.1855 Q259.2581,544.4199 260.1487,545.248 Q261.0393,546.0605 262.6331,546.0605 Q263.5706,546.0605 264.2268,545.8105 Q264.6174,545.6543 265.0393,545.2168 Q265.3049,544.9512 265.4456,544.873 Q265.6018,544.7949 265.8049,544.7949 Q266.1331,544.7949 266.3831,545.0605 Q266.6487,545.3105 266.6487,545.6543 Q266.6487,545.998 266.3049,546.4043 Q265.8049,546.9824 265.0081,547.3105 Q263.9299,547.7637 262.6331,547.7637 Q261.1174,547.7637 259.9143,547.1387 Q258.9299,546.6387 258.2424,545.5762 Q257.5549,544.498 257.5549,543.2168 L257.5549,542.0605 Q257.5549,540.7324 258.1643,539.5918 Q258.7893,538.4355 259.8831,537.8262 Q260.9768,537.2012 262.2112,537.2012 Q262.9456,537.2012 263.5862,537.373 Q264.2424,537.5293 264.7893,537.8887 Z " fill="#000000"/><text fill="#000000" font-family="sans-serif" font-size="13" lengthAdjust="spacing" textLength="65.7554" x="282.5237" y="547.3965">Repositorio</text><line style="stroke:#181818;stroke-width:0.5;" x1="196.5" x2="401.8027" y1="558.0137" y2="558.0137"/><rect fill="none" height="6" style="stroke:#C82930;stroke-width:1;" width="6" x="203.5" y="569.8242"/><text fill="#000000" font-family="sans-serif" font-size="14" lengthAdjust="spacing" textLength="138.5439" x="215.5" y="577.1211">basedatos: Basedatos</text><rect fill="none" height="6" style="stroke:#C82930;stroke-width:1;" width="6" x="203.5" y="588.4453"/><text fill="#000000" font-family="sans-serif" font-size="14" lengthAdjust="spacing" textLength="61.4756" x="215.5" y="595.7422">dao: DAO</text><line style="stroke:#181818;stroke-width:0.5;" x1="196.5" x2="401.8027" y1="603.2559" y2="603.2559"/><ellipse cx="206.5" cy="618.0664" fill="#84BE84" rx="3" ry="3" style="stroke:#038048;stroke-width:1;"/><text fill="#000000" font-family="sans-serif" font-size="14" lengthAdjust="spacing" textLength="181.3027" x="215.5" y="622.3633">Repositorio(context: Context)</text></g><!--class Basedatos--><g class="entity" data-entity="Basedatos" data-source-line="37" data-uid="ent0008" id="entity_Basedatos"><rect fill="#F1F1F1" height="141.7363" rx="2.5" ry="2.5" style="stroke:#181818;stroke-width:0.5;" width="282.8125" x="30.5" y="719.5137"/><ellipse cx="98.6113" cy="741.1396" fill="#A9DCDF" rx="11" ry="11" style="stroke:#181818;stroke-width:1;"/><path d="M100.7988,742.9053 L96.6582,742.9053 L96.2363,743.9365 L96.6582,743.9365 Q97.2676,743.9365 97.5332,744.1709 Q97.7988,744.4053 97.7988,744.7959 Q97.7988,745.1709 97.5332,745.4053 Q97.2676,745.6396 96.6582,745.6396 L94.3613,745.6396 Q93.752,745.6396 93.502,745.4053 Q93.2363,745.1709 93.2363,744.7803 Q93.2363,744.4053 93.5176,744.1709 Q93.7832,743.9209 94.4082,743.9365 L97.0801,737.2803 L95.9707,737.2803 Q95.3613,737.2803 95.0957,737.0459 Q94.8301,736.8115 94.8301,736.4209 Q94.8301,736.0459 95.0957,735.8115 Q95.3613,735.5771 95.9707,735.5771 L99.6426,735.5771 L103.0332,743.9365 Q103.627,743.9365 103.8145,744.0771 Q104.2051,744.3428 104.2051,744.7959 Q104.2051,745.1709 103.9395,745.4053 Q103.6895,745.6396 103.0801,745.6396 L100.7832,745.6396 Q100.1738,745.6396 99.9082,745.4053 Q99.6426,745.1709 99.6426,744.7803 Q99.6426,744.4053 99.9082,744.1709 Q100.1738,743.9365 100.7832,743.9365 L101.2051,743.9365 L100.7988,742.9053 Z M100.0801,741.2021 L98.7207,737.8271 L97.3457,741.2021 L100.0801,741.2021 Z " fill="#000000"/><text fill="#000000" font-family="sans-serif" font-size="12" font-style="italic" lengthAdjust="spacing" textLength="142.0898" x="117.1113" y="737.4629">&#171;extends RoomDatabase&#187;</text><text fill="#000000" font-family="sans-serif" font-size="13" font-style="italic" lengthAdjust="spacing" textLength="61.4326" x="157.4399" y="754.5029">Basedatos</text><line style="stroke:#181818;stroke-width:0.5;" x1="31.5" x2="312.3125" y1="762.7656" y2="762.7656"/><rect fill="none" height="6" style="stroke:#C82930;stroke-width:1;" width="6" x="38.5" y="774.5762"/><text fill="#000000" font-family="sans-serif" font-size="14" lengthAdjust="spacing" textLength="232.6475" x="50.5" y="781.873">static volatile INSTANCIA: Basedatos</text><rect fill="none" height="6" style="stroke:#C82930;stroke-width:1;" width="6" x="38.5" y="793.1973"/><text fill="#000000" font-family="sans-serif" font-size="14" lengthAdjust="spacing" textLength="199.9717" x="50.5" y="800.4941">static executor: ExecutorService</text><line style="stroke:#181818;stroke-width:0.5;" x1="31.5" x2="312.3125" y1="808.0078" y2="808.0078"/><ellipse cx="41.5" cy="822.8184" fill="#84BE84" rx="3" ry="3" style="stroke:#038048;stroke-width:1;"/><text fill="#000000" font-family="sans-serif" font-size="14" lengthAdjust="spacing" textLength="256.8125" x="50.5" y="827.1152">getInstance(context: Context): Basedatos</text><line style="stroke:#181818;stroke-width:0.5;" x1="31.5" x2="312.3125" y1="834.6289" y2="834.6289"/><ellipse cx="41.5" cy="849.4395" fill="#84BE84" rx="3" ry="3" style="stroke:#038048;stroke-width:1;"/><text fill="#000000" font-family="sans-serif" font-size="14" lengthAdjust="spacing" textLength="97.2412" x="50.5" y="853.7363">getDAO(): DAO</text></g><!--class DAO--><g class="entity" data-entity="DAO" data-source-line="46" data-uid="ent0009" id="entity_DAO"><rect fill="#F1F1F1" height="162.9785" rx="2.5" ry="2.5" style="stroke:#181818;stroke-width:0.5;" width="242.3096" x="424" y="709.0137"/><ellipse cx="513.2183" cy="730.6396" fill="#B4A7E5" rx="11" ry="11" style="stroke:#181818;stroke-width:1;"/><path d="M514.1714,727.2803 L514.1714,733.9365 L515.8901,733.9365 Q516.4995,733.9365 516.7651,734.1709 Q517.0308,734.4053 517.0308,734.7959 Q517.0308,735.1709 516.7651,735.4053 Q516.4995,735.6396 515.8901,735.6396 L510.7495,735.6396 Q510.1401,735.6396 509.8745,735.4053 Q509.6089,735.1709 509.6089,734.7803 Q509.6089,734.4053 509.8745,734.1709 Q510.1401,733.9365 510.7495,733.9365 L512.4683,733.9365 L512.4683,727.2803 L510.7495,727.2803 Q510.1401,727.2803 509.8745,727.0459 Q509.6089,726.8115 509.6089,726.4209 Q509.6089,726.0459 509.8745,725.8115 Q510.1401,725.5771 510.7495,725.5771 L515.8901,725.5771 Q516.4995,725.5771 516.7651,725.8115 Q517.0308,726.0459 517.0308,726.4209 Q517.0308,726.8115 516.7651,727.0459 Q516.4995,727.2803 515.8901,727.2803 L514.1714,727.2803 Z " fill="#000000"/><text fill="#000000" font-family="sans-serif" font-size="12" font-style="italic" lengthAdjust="spacing" textLength="59.373" x="531.7183" y="726.9629">&#171;interface&#187;</text><text fill="#000000" font-family="sans-serif" font-size="13" font-style="italic" lengthAdjust="spacing" textLength="28.1709" x="547.3193" y="744.0029">DAO</text><line style="stroke:#181818;stroke-width:0.5;" x1="425" x2="665.3096" y1="752.2656" y2="752.2656"/><ellipse cx="435" cy="767.0762" fill="#84BE84" rx="3" ry="3" style="stroke:#038048;stroke-width:1;"/><text fill="#000000" font-family="sans-serif" font-size="14" lengthAdjust="spacing" textLength="193.7715" x="444" y="771.373">getTodos(): LiveData&lt;List&lt;T&gt;&gt;</text><ellipse cx="435" cy="785.6973" fill="#84BE84" rx="3" ry="3" style="stroke:#038048;stroke-width:1;"/><text fill="#000000" font-family="sans-serif" font-size="14" lengthAdjust="spacing" textLength="196.0957" x="444" y="789.9941">getPorId(id: Tipo): LiveData&lt;T&gt;</text><ellipse cx="435" cy="804.3184" fill="#84BE84" rx="3" ry="3" style="stroke:#038048;stroke-width:1;"/><text fill="#000000" font-family="sans-serif" font-size="14" lengthAdjust="spacing" textLength="133.0342" x="444" y="808.6152">insertar(item: T): long</text><ellipse cx="435" cy="822.9395" fill="#84BE84" rx="3" ry="3" style="stroke:#038048;stroke-width:1;"/><text fill="#000000" font-family="sans-serif" font-size="14" lengthAdjust="spacing" textLength="216.3096" x="444" y="827.2363">insertarTodos(lista: List&lt;T&gt;): long[]</text><ellipse cx="435" cy="841.5605" fill="#84BE84" rx="3" ry="3" style="stroke:#038048;stroke-width:1;"/><text fill="#000000" font-family="sans-serif" font-size="14" lengthAdjust="spacing" textLength="134.5859" x="444" y="845.8574">actualizar(item: T): int</text><ellipse cx="435" cy="860.1816" fill="#84BE84" rx="3" ry="3" style="stroke:#038048;stroke-width:1;"/><text fill="#000000" font-family="sans-serif" font-size="14" lengthAdjust="spacing" textLength="123.6826" x="444" y="864.4785">eliminar(item: T): int</text></g><!--class Basedatos_Impl--><g class="entity" data-entity="Basedatos_Impl" data-source-line="58" data-uid="ent0011" id="entity_Basedatos_Impl"><rect fill="#F1F1F1" height="96.4941" rx="2.5" ry="2.5" style="stroke:#181818;stroke-width:0.5;" width="143.418" x="157.5" y="989.0137"/><ellipse cx="172.5" cy="1010.6396" fill="#ADD1B2" rx="11" ry="11" style="stroke:#181818;stroke-width:1;"/><path d="M175.2656,1006.5146 Q175.4219,1006.2959 175.6094,1006.1865 Q175.7969,1006.0771 176.0156,1006.0771 Q176.3906,1006.0771 176.625,1006.3428 Q176.8594,1006.5928 176.8594,1007.2021 L176.8594,1008.6553 Q176.8594,1009.2646 176.625,1009.5303 Q176.3906,1009.7959 176.0156,1009.7959 Q175.6719,1009.7959 175.4688,1009.5928 Q175.2656,1009.4053 175.1563,1008.8896 Q175.1094,1008.5303 174.9219,1008.3428 Q174.5938,1007.9678 173.9844,1007.749 Q173.375,1007.5303 172.75,1007.5303 Q171.9844,1007.5303 171.3438,1007.8584 Q170.7188,1008.1865 170.2188,1008.9365 Q169.7344,1009.6865 169.7344,1010.7178 L169.7344,1011.8115 Q169.7344,1013.0459 170.625,1013.874 Q171.5156,1014.6865 173.1094,1014.6865 Q174.0469,1014.6865 174.7031,1014.4365 Q175.0938,1014.2803 175.5156,1013.8428 Q175.7813,1013.5771 175.9219,1013.499 Q176.0781,1013.4209 176.2813,1013.4209 Q176.6094,1013.4209 176.8594,1013.6865 Q177.125,1013.9365 177.125,1014.2803 Q177.125,1014.624 176.7813,1015.0303 Q176.2813,1015.6084 175.4844,1015.9365 Q174.4063,1016.3896 173.1094,1016.3896 Q171.5938,1016.3896 170.3906,1015.7646 Q169.4063,1015.2646 168.7188,1014.2021 Q168.0313,1013.124 168.0313,1011.8428 L168.0313,1010.6865 Q168.0313,1009.3584 168.6406,1008.2178 Q169.2656,1007.0615 170.3594,1006.4521 Q171.4531,1005.8271 172.6875,1005.8271 Q173.4219,1005.8271 174.0625,1005.999 Q174.7188,1006.1553 175.2656,1006.5146 Z " fill="#000000"/><text fill="#000000" font-family="sans-serif" font-size="12" font-style="italic" lengthAdjust="spacing" textLength="115.418" x="184.5" y="1006.9629">&#171;extends Basedatos&#187;</text><text fill="#000000" font-family="sans-serif" font-size="13" lengthAdjust="spacing" textLength="93.2217" x="195.5981" y="1024.0029">Basedatos_Impl</text><line style="stroke:#181818;stroke-width:0.5;" x1="158.5" x2="299.918" y1="1032.2656" y2="1032.2656"/><rect fill="none" height="6" style="stroke:#C82930;stroke-width:1;" width="6" x="165.5" y="1044.0762"/><text fill="#000000" font-family="sans-serif" font-size="14" lengthAdjust="spacing" textLength="69.2617" x="177.5" y="1051.373">_dao: DAO</text><line style="stroke:#181818;stroke-width:0.5;" x1="158.5" x2="299.918" y1="1058.8867" y2="1058.8867"/><ellipse cx="168.5" cy="1073.6973" fill="#84BE84" rx="3" ry="3" style="stroke:#038048;stroke-width:1;"/><text fill="#000000" font-family="sans-serif" font-size="14" lengthAdjust="spacing" textLength="97.2412" x="177.5" y="1077.9941">getDAO(): DAO</text></g><!--class DAO_Impl--><g class="entity" data-entity="DAO_Impl" data-source-line="63" data-uid="ent0012" id="entity_DAO_Impl"><rect fill="#F1F1F1" height="125.7363" rx="2.5" ry="2.5" style="stroke:#181818;stroke-width:0.5;" width="242.3096" x="336" y="974.0137"/><ellipse cx="402.8853" cy="995.6396" fill="#ADD1B2" rx="11" ry="11" style="stroke:#181818;stroke-width:1;"/><path d="M405.6509,991.5146 Q405.8071,991.2959 405.9946,991.1865 Q406.1821,991.0771 406.4009,991.0771 Q406.7759,991.0771 407.0103,991.3428 Q407.2446,991.5928 407.2446,992.2021 L407.2446,993.6553 Q407.2446,994.2646 407.0103,994.5303 Q406.7759,994.7959 406.4009,994.7959 Q406.0571,994.7959 405.854,994.5928 Q405.6509,994.4053 405.5415,993.8896 Q405.4946,993.5303 405.3071,993.3428 Q404.979,992.9678 404.3696,992.749 Q403.7603,992.5303 403.1353,992.5303 Q402.3696,992.5303 401.729,992.8584 Q401.104,993.1865 400.604,993.9365 Q400.1196,994.6865 400.1196,995.7178 L400.1196,996.8115 Q400.1196,998.0459 401.0103,998.874 Q401.9009,999.6865 403.4946,999.6865 Q404.4321,999.6865 405.0884,999.4365 Q405.479,999.2803 405.9009,998.8428 Q406.1665,998.5771 406.3071,998.499 Q406.4634,998.4209 406.6665,998.4209 Q406.9946,998.4209 407.2446,998.6865 Q407.5103,998.9365 407.5103,999.2803 Q407.5103,999.624 407.1665,1000.0303 Q406.6665,1000.6084 405.8696,1000.9365 Q404.7915,1001.3896 403.4946,1001.3896 Q401.979,1001.3896 400.7759,1000.7646 Q399.7915,1000.2646 399.104,999.2021 Q398.4165,998.124 398.4165,996.8428 L398.4165,995.6865 Q398.4165,994.3584 399.0259,993.2178 Q399.6509,992.0615 400.7446,991.4521 Q401.8384,990.8271 403.0728,990.8271 Q403.8071,990.8271 404.4478,990.999 Q405.104,991.1553 405.6509,991.5146 Z " fill="#000000"/><text fill="#000000" font-family="sans-serif" font-size="12" font-style="italic" lengthAdjust="spacing" textLength="104.0391" x="421.3853" y="991.9629">&#171;implements DAO&#187;</text><text fill="#000000" font-family="sans-serif" font-size="13" lengthAdjust="spacing" textLength="59.96" x="443.4248" y="1009.0029">DAO_Impl</text><line style="stroke:#181818;stroke-width:0.5;" x1="337" x2="577.3096" y1="1017.2656" y2="1017.2656"/><ellipse cx="347" cy="1032.0762" fill="#84BE84" rx="3" ry="3" style="stroke:#038048;stroke-width:1;"/><text fill="#000000" font-family="sans-serif" font-size="14" lengthAdjust="spacing" textLength="193.7715" x="356" y="1036.373">getTodos(): LiveData&lt;List&lt;T&gt;&gt;</text><ellipse cx="347" cy="1050.6973" fill="#84BE84" rx="3" ry="3" style="stroke:#038048;stroke-width:1;"/><text fill="#000000" font-family="sans-serif" font-size="14" lengthAdjust="spacing" textLength="196.0957" x="356" y="1054.9941">getPorId(id: Tipo): LiveData&lt;T&gt;</text><ellipse cx="347" cy="1069.3184" fill="#84BE84" rx="3" ry="3" style="stroke:#038048;stroke-width:1;"/><text fill="#000000" font-family="sans-serif" font-size="14" lengthAdjust="spacing" textLength="133.0342" x="356" y="1073.6152">insertar(item: T): long</text><ellipse cx="347" cy="1087.9395" fill="#84BE84" rx="3" ry="3" style="stroke:#038048;stroke-width:1;"/><text fill="#000000" font-family="sans-serif" font-size="14" lengthAdjust="spacing" textLength="216.3096" x="356" y="1092.2363">insertarTodos(lista: List&lt;T&gt;): long[]</text></g><!--link ActivityFragment to ClaseViewModel--><g class="link" data-entity-1="ActivityFragment" data-entity-2="ClaseViewModel" data-source-line="74" data-uid="lnk13" id="link_ActivityFragment_ClaseViewModel"><path codeLine="74" d="M299,184.1137 C299,216.8437 299,249.6737 299,281.9537" fill="none" id="ActivityFragment-to-ClaseViewModel" style="stroke:#181818;stroke-width:1;"/><polygon fill="#181818" points="299,287.9537,303,278.9537,299,282.9537,295,278.9537,299,287.9537" style="stroke:#181818;stroke-width:1;"/><text fill="#000000" font-family="sans-serif" font-size="13" lengthAdjust="spacing" textLength="46.249" x="300" y="231.042">observa</text></g><!--link ClaseViewModel to Repositorio--><g class="link" data-entity-1="ClaseViewModel" data-entity-2="Repositorio" data-source-line="75" data-uid="lnk14" id="link_ClaseViewModel_Repositorio"><path codeLine="75" d="M299,422.0237 C299,455.2137 299,488.8437 299,519.7237" fill="none" id="ClaseViewModel-to-Repositorio" style="stroke:#181818;stroke-width:1;"/><polygon fill="#181818" points="299,525.7237,303,516.7237,299,520.7237,295,516.7237,299,525.7237" style="stroke:#181818;stroke-width:1;"/><text fill="#000000" font-family="sans-serif" font-size="13" lengthAdjust="spacing" textLength="20.96" x="300" y="469.042">usa</text></g><!--link Repositorio to DAO--><g class="link" data-entity-1="Repositorio" data-entity-2="DAO" data-source-line="76" data-uid="lnk15" id="link_Repositorio_DAO"><path codeLine="76" d="M358.86,630.2337 C386.45,653.8437 415.3013,678.5326 446.1513,704.9326" fill="none" id="Repositorio-to-DAO" style="stroke:#181818;stroke-width:1;"/><polygon fill="#181818" points="450.71,708.8337,446.4727,699.9429,446.9111,705.5828,441.2713,706.0211,450.71,708.8337" style="stroke:#181818;stroke-width:1;"/><text fill="#000000" font-family="sans-serif" font-size="13" lengthAdjust="spacing" textLength="20.96" x="415" y="675.042">usa</text></g><!--link Repositorio to Basedatos--><g class="link" data-entity-1="Repositorio" data-entity-2="Basedatos" data-source-line="77" data-uid="lnk16" id="link_Repositorio_Basedatos"><path codeLine="77" d="M268.09,630.2337 C251.94,657.0137 235.0302,685.0467 217.4502,714.1767" fill="none" id="Repositorio-to-Basedatos" style="stroke:#181818;stroke-width:1;"/><polygon fill="#181818" points="214.35,719.3137,222.425,713.675,216.9335,715.0328,215.5756,709.5414,214.35,719.3137" style="stroke:#181818;stroke-width:1;"/><text fill="#000000" font-family="sans-serif" font-size="13" lengthAdjust="spacing" textLength="97.5698" x="247" y="675.042">obtiene instancia</text></g><!--link Basedatos to DAO--><g class="link" data-entity-1="Basedatos" data-entity-2="DAO" data-source-line="80" data-uid="lnk17" id="link_Basedatos_DAO"><path codeLine="80" d="M313.55,790.5137 C349.92,790.5137 382.72,790.5137 417.96,790.5137" fill="none" id="Basedatos-to-DAO" style="stroke:#181818;stroke-width:1;"/><polygon fill="#181818" points="423.96,790.5137,414.96,786.5137,418.96,790.5137,414.96,794.5137,423.96,790.5137" style="stroke:#181818;stroke-width:1;"/><text fill="#000000" font-family="sans-serif" font-size="13" lengthAdjust="spacing" textLength="74.4326" x="331.75" y="783.542">expone DAO</text></g><!--link Basedatos to DAO--><!--reverse link DAO to DAO_Impl--><g class="link" data-entity-1="DAO" data-entity-2="DAO_Impl" data-source-line="83" data-uid="lnk18" id="link_DAO_DAO_Impl"><path codeLine="83" d="M509.8458,889.1906 C497.9358,922.2906 490.45,943.0637 479.34,973.9537" fill="none" id="DAO-backto-DAO_Impl" style="stroke:#181818;stroke-width:1;stroke-dasharray:7,7;"/><polygon fill="none" points="515.94,872.2537,504.2001,887.1592,515.4914,891.222,515.94,872.2537" style="stroke:#181818;stroke-width:1;"/><text fill="#000000" font-family="sans-serif" font-size="13" lengthAdjust="spacing" textLength="67.1963" x="504" y="917.042">implementa</text></g><!--reverse link Basedatos to Basedatos_Impl--><g class="link" data-entity-1="Basedatos" data-entity-2="Basedatos_Impl" data-source-line="84" data-uid="lnk19" id="link_Basedatos_Basedatos_Impl"><path codeLine="84" d="M163.2457,879.7979 C162.7557,899.2079 164.37,902.1237 169,921.0137 C174.79,944.6337 186.38,968.7937 197.83,988.8337" fill="none" id="Basedatos-backto-Basedatos_Impl" style="stroke:#181818;stroke-width:1;"/><polygon fill="none" points="163.7,861.8037,157.2477,879.6465,169.2438,879.9494,163.7,861.8037" style="stroke:#181818;stroke-width:1;"/><text fill="#000000" font-family="sans-serif" font-size="13" lengthAdjust="spacing" textLength="49.1499" x="170" y="917.042">extiende</text></g><!--link Basedatos to Basedatos_Impl--><!--SRC=[bLNRRXit47tVhnZe9Ge2kKZIfuKWG7KIG40kHQpa9GYCqUvK7eHBBaXAiHtxa_BKJyYFTSYzSTSgwWg2H78E3-VCXNJVMDTeiOAzDOTwew_8iaTT4Bp8N6yi53htncX_mRS4prycfXgBRxYdmVXxTiKb0LMrlu6AgXrPbsKj36QVcRxFu4S63IdCreNd8_kRtzvOt5Ua_GpGGRVQBSOT00iuoluS0akoyCwKf78u5qRwtCsZ_HaOVMu9FSsVjXlCpf4zeks1lGKBVq35jsW_RUBYVNO_SJrkc0tkZu-4vPAkFUbI1EZI6YvxqshLIx1K6yVUM3OvV1mcdI1KnhuxUDmfog4TlEKZlKAFo-sgXIbs7ZUwwe0zugqO1DRWBY_RC8mTdMDTAoxGiz4vh8V9GzMDuYHZYSUzf9sGb-YDo-6FRjYQIXILhzOVnkua9FD2QaV29lbh1eqFylC4FZciZ0DlzkIbD27K7E3U7cG0Do39qeHMe3sYyIZiFJVA575xxv9i4K-0D2Y4Ybs5e7xz58fs4-wSjr85hT9Xtv3NZyPK8Sn1SP_JHgdamtC1HwFaNn5itbzir-_FD-jfK4PmkgRY8878uNKxkf3ov89wQ1kq9d0YSwDTRD67WJjrq7It163-TCX86-hmOI6nVw7qVWZISjdFHpeZoTQKnWMQqrNNu_uqTbFEkSnXoxL9yTiKoLfQqgETiwTAi09KHkzF89g3O-q7idXcY_xoDS4FhPnmYg04Geehrly2Y469FtqZRAfQKRYBiE1VV-jO2RCsC9DwkGpOf6XwGnB91LoEMkDqUjhaDFoos35pvqnSJMWVbvx79kU_KlD_4dFVH5I-JwJzbKJHQ79GMzO5rwZ8PGzk_SLYDRrYy-u2poQ6W4tlfXmE3hDq9I12QP-s3DqUZl1CceAwq6gCWzCXzUAQfUcraWtpuI2whaLbD8zbonF9uuBAOjVTdPqDUSuJJ4A_l5iifiKMZWe-bnGEMiUBiPAvDt0b4c_bXa0bxt79A6qjRr2dnHG7DM9VV947l2JzDMgOaXqbs_9MF8xghAEwMqty_GS0]--></g></svg>